<svg width="450" height="340" viewBox="0 0 450 340" fill="none" xmlns="http://www.w3.org/2000/svg">
<g clip-path="url(#clip0_139_75)">
<path d="M207.519 72.5331H96.5096C95.9646 72.5324 95.4421 72.3155 95.0567 71.9298C94.6713 71.5442 94.4545 71.0213 94.4539 70.4759V42.9195C94.4545 42.3741 94.6713 41.8512 95.0567 41.4656C95.4421 41.0799 95.9646 40.8629 96.5096 40.8623H207.519C208.064 40.8629 208.586 41.0799 208.972 41.4656C209.357 41.8512 209.574 42.3741 209.575 42.9195V70.4759C209.574 71.0213 209.357 71.5442 208.972 71.9298C208.586 72.3155 208.064 72.5324 207.519 72.5331ZM96.5096 41.6852C96.1826 41.6855 95.8691 41.8157 95.6378 42.0471C95.4066 42.2785 95.2765 42.5922 95.2761 42.9195V70.4759C95.2765 70.8031 95.4066 71.1168 95.6378 71.3483C95.8691 71.5797 96.1826 71.7098 96.5096 71.7102H207.519C207.846 71.7098 208.16 71.5797 208.391 71.3483C208.622 71.1168 208.752 70.8031 208.752 70.4759V42.9195C208.752 42.5922 208.622 42.2785 208.391 42.0471C208.16 41.8157 207.846 41.6855 207.519 41.6852L96.5096 41.6852Z" fill="#3F3D56"/>
<path d="M113.758 64.0201C118.383 64.0201 122.132 60.2683 122.132 55.6402C122.132 51.0121 118.383 47.2603 113.758 47.2603C109.133 47.2603 105.384 51.0121 105.384 55.6402C105.384 60.2683 109.133 64.0201 113.758 64.0201Z" fill="#5A189A"/>
<path d="M133.098 50.0537C132.728 50.0537 132.373 50.2009 132.111 50.4628C131.849 50.7247 131.702 51.0799 131.702 51.4504C131.702 51.8208 131.849 52.176 132.111 52.4379C132.373 52.6999 132.728 52.847 133.098 52.847H198.893C199.263 52.847 199.618 52.6999 199.88 52.4379C200.142 52.176 200.289 51.8208 200.289 51.4504C200.289 51.0799 200.142 50.7247 199.88 50.4628C199.618 50.2009 199.263 50.0537 198.893 50.0537H133.098Z" fill="#E6E6E6"/>
<path d="M133.098 58.4336C132.728 58.4336 132.373 58.5807 132.111 58.8427C131.849 59.1046 131.702 59.4598 131.702 59.8303C131.702 60.2007 131.849 60.5559 132.111 60.8178C132.373 61.0798 132.728 61.2269 133.098 61.2269H161.41C161.593 61.2272 161.775 61.1914 161.945 61.1213C162.114 61.0513 162.269 60.9485 162.398 60.8187C162.528 60.689 162.631 60.5349 162.702 60.3653C162.772 60.1957 162.808 60.0139 162.808 59.8303C162.808 59.6466 162.772 59.4648 162.702 59.2952C162.631 59.1256 162.528 58.9715 162.398 58.8418C162.269 58.712 162.114 58.6092 161.945 58.5392C161.775 58.4691 161.593 58.4333 161.41 58.4336H133.098Z" fill="#E6E6E6"/>
<path d="M159.325 170.759H109.988C109.443 170.758 108.92 170.541 108.535 170.156C108.149 169.77 107.933 169.247 107.932 168.702V117.282C107.933 116.736 108.149 116.214 108.535 115.828C108.92 115.442 109.443 115.225 109.988 115.225H159.325C159.87 115.225 160.393 115.442 160.778 115.828C161.164 116.214 161.38 116.736 161.381 117.282V168.702C161.38 169.247 161.164 169.77 160.778 170.156C160.393 170.541 159.87 170.758 159.325 170.759ZM109.988 116.047C109.661 116.048 109.347 116.178 109.116 116.409C108.885 116.641 108.755 116.955 108.754 117.282V168.702C108.755 169.029 108.885 169.343 109.116 169.574C109.347 169.805 109.661 169.936 109.988 169.936H159.325C159.652 169.936 159.966 169.805 160.197 169.574C160.428 169.343 160.558 169.029 160.559 168.702V117.282C160.558 116.955 160.428 116.641 160.197 116.409C159.966 116.178 159.652 116.048 159.325 116.047H109.988Z" fill="#3F3D56"/>
<path d="M120.501 125.828C120.13 125.828 119.776 125.975 119.514 126.237C119.252 126.499 119.105 126.854 119.105 127.225C119.105 127.595 119.252 127.95 119.514 128.212C119.776 128.474 120.13 128.621 120.501 128.621H148.813C149.183 128.621 149.538 128.474 149.799 128.212C150.061 127.95 150.208 127.595 150.208 127.225C150.208 126.854 150.061 126.499 149.799 126.237C149.538 125.975 149.183 125.828 148.813 125.828H120.501Z" fill="#E6E6E6"/>
<path d="M120.501 134.057C120.317 134.057 120.135 134.093 119.966 134.163C119.796 134.233 119.642 134.336 119.512 134.465C119.382 134.595 119.279 134.749 119.209 134.919C119.139 135.088 119.102 135.27 119.102 135.454C119.102 135.637 119.139 135.819 119.209 135.989C119.279 136.158 119.382 136.313 119.512 136.442C119.642 136.572 119.796 136.675 119.966 136.745C120.135 136.815 120.317 136.851 120.501 136.85H148.813C149.183 136.85 149.538 136.703 149.799 136.441C150.061 136.179 150.208 135.824 150.208 135.454C150.208 135.083 150.061 134.728 149.799 134.466C149.538 134.204 149.183 134.057 148.813 134.057H120.501Z" fill="#E6E6E6"/>
<path d="M134.657 160.155C132.919 160.155 131.221 159.639 129.776 158.673C128.331 157.707 127.205 156.334 126.54 154.728C125.876 153.121 125.702 151.354 126.041 149.648C126.379 147.943 127.216 146.377 128.445 145.147C129.673 143.918 131.239 143.08 132.943 142.741C134.647 142.402 136.413 142.576 138.019 143.241C139.624 143.907 140.996 145.034 141.961 146.479C142.927 147.925 143.442 149.625 143.442 151.364C143.439 153.694 142.513 155.929 140.866 157.577C139.219 159.225 136.986 160.152 134.657 160.155Z" fill="#5A189A"/>
<path d="M240.149 0H289.486C290.031 0.000640428 290.554 0.217585 290.939 0.603245C291.325 0.988905 291.541 1.51179 291.542 2.0572V53.477C291.541 54.0224 291.325 54.5453 290.939 54.931C290.554 55.3166 290.031 55.5336 289.486 55.5342H240.149C239.604 55.5336 239.081 55.3166 238.696 54.931C238.31 54.5453 238.094 54.0224 238.093 53.477V2.0572C238.094 1.51179 238.31 0.988905 238.696 0.603245C239.081 0.217585 239.604 0.000640428 240.149 0ZM289.486 54.7113C289.813 54.711 290.127 54.5808 290.358 54.3494C290.589 54.118 290.719 53.8043 290.72 53.477V2.0572C290.719 1.72994 290.589 1.4162 290.358 1.18479C290.127 0.953393 289.813 0.823235 289.486 0.822877H240.149C239.822 0.823235 239.508 0.953393 239.277 1.18479C239.046 1.4162 238.916 1.72994 238.915 2.0572V53.477C238.916 53.8043 239.046 54.118 239.277 54.3494C239.508 54.5808 239.822 54.711 240.149 54.7113H289.486Z" fill="#3F3D56"/>
<path d="M278.973 44.9305C279.343 44.9305 279.698 44.7834 279.96 44.5214C280.222 44.2595 280.369 43.9043 280.369 43.5339C280.369 43.1634 280.222 42.8082 279.96 42.5463C279.698 42.2844 279.343 42.1372 278.973 42.1372H250.661C250.291 42.1372 249.936 42.2844 249.675 42.5463C249.413 42.8082 249.266 43.1634 249.266 43.5339C249.266 43.9043 249.413 44.2595 249.675 44.5214C249.936 44.7834 250.291 44.9305 250.661 44.9305H278.973Z" fill="#E6E6E6"/>
<path d="M278.973 36.7015C279.343 36.7015 279.698 36.5544 279.96 36.2924C280.222 36.0305 280.369 35.6753 280.369 35.3049C280.369 34.9344 280.222 34.5792 279.96 34.3173C279.698 34.0554 279.343 33.9082 278.973 33.9082H250.661C250.291 33.9082 249.936 34.0554 249.675 34.3173C249.413 34.5792 249.266 34.9344 249.266 35.3049C249.266 35.6753 249.413 36.0305 249.675 36.2924C249.936 36.5544 250.291 36.7015 250.661 36.7015H278.973Z" fill="#E6E6E6"/>
<path d="M264.817 10.6035C266.555 10.6035 268.253 11.1191 269.698 12.0851C271.143 13.0511 272.269 14.4241 272.934 16.0305C273.598 17.6369 273.772 19.4046 273.433 21.1099C273.095 22.8153 272.258 24.3817 271.029 25.6112C269.801 26.8407 268.235 27.678 266.531 28.0172C264.827 28.3564 263.061 28.1823 261.455 27.5169C259.85 26.8515 258.478 25.7247 257.513 24.279C256.547 22.8333 256.032 21.1336 256.032 19.3948C256.035 17.064 256.961 14.8295 258.608 13.1813C260.255 11.5332 262.488 10.6062 264.817 10.6035Z" fill="#5A189A"/>
<path d="M95.0878 106.38C103.818 99.6131 114.019 94.9987 124.863 92.9103C135.793 90.826 147.064 91.4055 157.723 94.6C163.081 96.1966 168.229 98.4288 173.058 101.249C177.977 104.127 182.423 107.67 186.7 111.421C191.033 115.221 195.223 119.19 199.746 122.768C212.659 133.097 228.69 138.741 245.222 138.777C246.588 138.779 247.953 138.741 249.316 138.664C250.056 138.623 250.06 137.467 249.316 137.508C232.465 138.436 215.824 133.404 202.307 123.293C197.619 119.785 193.338 115.773 188.968 111.887C184.732 108.118 180.382 104.453 175.575 101.425C163.818 94.013 150.14 90.2294 136.248 90.5462C122.356 90.8631 108.865 95.2665 97.4575 103.207C96.3728 103.962 95.3133 104.75 94.2709 105.562C93.6849 106.019 94.5077 106.832 95.0878 106.38Z" fill="#3F3D56"/>
<path d="M94.4745 111.968C97.7903 111.968 100.478 109.278 100.478 105.96C100.478 102.642 97.7903 99.9517 94.4745 99.9517C91.1587 99.9517 88.4707 102.642 88.4707 105.96C88.4707 109.278 91.1587 111.968 94.4745 111.968Z" fill="#3F3D56"/>
<path d="M317.827 191.739C321.143 191.739 323.831 189.049 323.831 185.731C323.831 182.413 321.143 179.723 317.827 179.723C314.512 179.723 311.824 182.413 311.824 185.731C311.824 189.049 314.512 191.739 317.827 191.739Z" fill="#3F3D56"/>
<path d="M349.28 151.506H251.316C250.771 151.505 250.249 151.288 249.863 150.902C249.478 150.517 249.261 149.994 249.26 149.448V98.44C249.261 97.8946 249.478 97.3717 249.863 96.9861C250.249 96.6004 250.771 96.3835 251.316 96.3828H349.28C349.825 96.3835 350.347 96.6004 350.733 96.9861C351.118 97.3717 351.335 97.8946 351.336 98.44V149.448C351.335 149.994 351.118 150.517 350.733 150.902C350.347 151.288 349.825 151.505 349.28 151.506ZM251.316 97.2057C250.989 97.2061 250.676 97.3362 250.444 97.5676C250.213 97.799 250.083 98.1128 250.083 98.44V149.448C250.083 149.776 250.213 150.089 250.444 150.321C250.676 150.552 250.989 150.682 251.316 150.683H349.28C349.607 150.682 349.92 150.552 350.152 150.321C350.383 150.089 350.513 149.776 350.513 149.448V98.44C350.513 98.1128 350.383 97.799 350.152 97.5676C349.92 97.3362 349.607 97.2061 349.28 97.2057H251.316Z" fill="#3F3D56"/>
<path d="M267.743 122.833C272.367 122.833 276.117 119.081 276.117 114.453C276.117 109.825 272.367 106.073 267.743 106.073C263.118 106.073 259.369 109.825 259.369 114.453C259.369 119.081 263.118 122.833 267.743 122.833Z" fill="#5A189A"/>
<path d="M287.082 108.866C286.899 108.865 286.717 108.901 286.547 108.971C286.378 109.041 286.224 109.144 286.094 109.274C285.964 109.404 285.861 109.558 285.791 109.727C285.72 109.897 285.684 110.079 285.684 110.262C285.684 110.446 285.72 110.628 285.791 110.797C285.861 110.967 285.964 111.121 286.094 111.251C286.224 111.381 286.378 111.483 286.547 111.553C286.717 111.623 286.899 111.659 287.082 111.659H339.832C340.202 111.659 340.557 111.512 340.819 111.25C341.08 110.988 341.227 110.633 341.227 110.262C341.227 109.892 341.08 109.537 340.819 109.275C340.557 109.013 340.202 108.866 339.832 108.866H287.082Z" fill="#E6E6E6"/>
<path d="M287.082 117.246C286.899 117.245 286.717 117.281 286.547 117.351C286.378 117.421 286.224 117.524 286.094 117.654C285.964 117.784 285.861 117.938 285.791 118.107C285.72 118.277 285.684 118.459 285.684 118.642C285.684 118.826 285.72 119.008 285.791 119.177C285.861 119.347 285.964 119.501 286.094 119.631C286.224 119.76 286.378 119.863 286.547 119.933C286.717 120.003 286.899 120.039 287.082 120.039H315.394C315.764 120.039 316.119 119.892 316.381 119.63C316.643 119.368 316.79 119.013 316.79 118.642C316.79 118.272 316.643 117.917 316.381 117.655C316.119 117.393 315.764 117.246 315.394 117.246H287.082Z" fill="#E6E6E6"/>
<path d="M261.319 130.643C260.258 130.643 259.394 131.27 259.394 132.04C259.394 132.81 260.258 133.436 261.319 133.436H339.051C340.112 133.436 340.976 132.81 340.976 132.04C340.976 131.27 340.112 130.643 339.051 130.643H261.319Z" fill="#E6E6E6"/>
<path d="M261.319 139.023C260.258 139.023 259.394 139.65 259.394 140.42C259.394 141.19 260.258 141.816 261.319 141.816H339.051C340.112 141.816 340.976 141.19 340.976 140.42C340.976 139.65 340.112 139.023 339.051 139.023H261.319Z" fill="#E6E6E6"/>
<path d="M243.441 191.324C248.968 188.925 255.139 191.016 260.348 193.228C263.031 194.367 265.685 195.582 268.461 196.481C270.797 197.236 273.189 197.803 275.615 198.178C280.483 198.924 285.433 198.954 290.31 198.268C295.211 197.584 299.988 196.194 304.491 194.141C308.97 192.11 313.109 189.402 316.765 186.111C317.23 185.691 317.686 185.261 318.133 184.821C318.665 184.3 317.848 183.482 317.316 184.004C313.796 187.438 309.755 190.292 305.343 192.462C300.949 194.624 296.262 196.131 291.432 196.934C286.586 197.752 281.644 197.837 276.773 197.187C274.343 196.858 271.943 196.336 269.596 195.626C266.9 194.748 264.255 193.72 261.674 192.547C256.416 190.287 250.574 188.075 244.797 189.633C244.135 189.816 243.487 190.048 242.858 190.326C242.178 190.621 242.766 191.617 243.441 191.324Z" fill="#3F3D56"/>
<path d="M241.306 205.503H195.023L205.915 186.624C206.11 186.286 206.391 186.005 206.729 185.809C207.067 185.614 207.451 185.511 207.841 185.511C208.232 185.511 208.615 185.614 208.953 185.809C209.292 186.005 209.572 186.286 209.768 186.624L214.42 194.689L222.332 180.976C222.576 180.552 222.928 180.2 223.351 179.956C223.775 179.711 224.255 179.583 224.744 179.583C225.233 179.583 225.713 179.711 226.136 179.956C226.559 180.2 226.911 180.552 227.155 180.976L241.306 205.503Z" fill="#5A189A"/>
<path d="M241.35 205.498H192.012C191.467 205.498 190.945 205.281 190.559 204.895C190.174 204.51 189.957 203.987 189.957 203.441V175.885C189.957 175.339 190.174 174.817 190.559 174.431C190.945 174.045 191.467 173.828 192.012 173.828H241.35C241.895 173.828 242.417 174.045 242.803 174.431C243.188 174.817 243.405 175.339 243.406 175.885V203.441C243.405 203.987 243.188 204.51 242.803 204.895C242.417 205.281 241.895 205.498 241.35 205.498ZM192.012 174.651C191.685 174.651 191.372 174.781 191.14 175.012C190.909 175.244 190.779 175.558 190.779 175.885V203.441C190.779 203.768 190.909 204.082 191.14 204.314C191.372 204.545 191.685 204.675 192.012 204.676H241.35C241.677 204.675 241.99 204.545 242.222 204.314C242.453 204.082 242.583 203.768 242.583 203.441V175.885C242.583 175.558 242.453 175.244 242.222 175.012C241.99 174.781 241.677 174.651 241.35 174.651H192.012Z" fill="#3F3D56"/>
<path d="M338.119 181.246L329.325 185.715C326.186 187.31 323.157 187.037 321.997 183.711C321.721 182.919 321.619 182.078 321.698 181.243C321.777 180.409 322.035 179.601 322.456 178.876C322.876 178.15 323.447 177.524 324.131 177.041C324.816 176.557 325.596 176.227 326.42 176.073L334.778 174.511L370.575 162.627L392.259 147.24L400.207 159.913L375.152 173.443L338.119 181.246Z" fill="#B25353"/>
<path d="M379.172 329.583L372.443 328.461L373.191 315.742H380.293L379.172 329.583Z" fill="#B25353"/>
<path d="M444.475 317.161L437.964 319.193L432.903 307.503L439.243 304.3L444.475 317.161Z" fill="#B25353"/>
<path d="M440.849 306.016L432.626 309.383L393.376 257.761L381.041 318.361L372.817 316.865C367.541 264.62 363.24 211.33 368.518 186.127L398.983 184.817L412.814 228.958L419.542 258.883L440.849 306.016Z" fill="#2F2E41"/>
<path d="M378.801 339.869C377.571 340.133 376.289 339.996 375.141 339.48L371.144 337.68C367.793 337.508 365.511 338.176 363.645 335.739C363.118 335.042 362.788 334.217 362.687 333.35C362.587 332.482 362.72 331.604 363.074 330.805C363.424 330.004 363.981 329.31 364.688 328.796C365.395 328.281 366.226 327.964 367.095 327.877L372.585 324.415L372.873 327.01C375.382 328.433 378.362 327.818 381.518 326.434L383.241 332.469C383.463 333.247 383.523 334.062 383.418 334.865C383.312 335.667 383.042 336.439 382.626 337.133C382.21 337.827 381.656 338.428 380.998 338.898C380.34 339.369 379.592 339.699 378.801 339.869Z" fill="#2F2E41"/>
<path d="M447.14 327.489C446.062 328.138 444.805 328.426 443.552 328.31L439.187 327.907C435.962 328.833 434.02 330.206 431.464 328.508C430.74 328.02 430.16 327.347 429.784 326.56C429.407 325.772 429.248 324.897 429.323 324.027C429.395 323.155 429.697 322.318 430.198 321.602C430.699 320.886 431.382 320.316 432.177 319.951L436.246 314.893L437.36 317.254C440.195 317.784 442.813 316.234 445.35 313.899L448.938 319.047C449.4 319.711 449.722 320.463 449.882 321.256C450.042 322.049 450.038 322.867 449.869 323.659C449.701 324.45 449.372 325.198 448.902 325.857C448.433 326.516 447.833 327.072 447.14 327.489Z" fill="#2F2E41"/>
<path d="M387.769 131.699C395.201 131.699 401.226 125.67 401.226 118.233C401.226 110.795 395.201 104.766 387.769 104.766C380.337 104.766 374.312 110.795 374.312 118.233C374.312 125.67 380.337 131.699 387.769 131.699Z" fill="#B25353"/>
<path d="M404.216 146.662L386.647 142.922L384.405 128.333L396.74 125.714L404.216 146.662Z" fill="#B25353"/>
<path d="M399.357 186.687H367.957L375.035 168.906C374.521 162.787 377.112 158.287 380.821 154.369L385.526 142.547C393.129 137.54 398.861 137.914 404.964 144.417C412.201 154.671 407.192 170.084 399.357 186.687Z" fill="#5A189A"/>
<path d="M385.152 224.469L384.259 234.298C383.941 237.807 382.099 240.229 378.668 239.444C377.851 239.258 377.084 238.897 376.42 238.386C375.756 237.875 375.21 237.226 374.819 236.485C374.428 235.743 374.203 234.926 374.157 234.089C374.111 233.252 374.247 232.415 374.554 231.635L377.676 223.72L386.647 187.061L385.152 160.502H400.104L398.235 188.932L385.152 224.469Z" fill="#B25353"/>
<path d="M401.226 161.251H384.031L385.236 150.026C385.316 148.085 386.117 146.243 387.484 144.863C388.851 143.482 390.683 142.663 392.623 142.566C393.65 142.515 394.678 142.668 395.646 143.017C396.614 143.365 397.504 143.903 398.263 144.597C399.022 145.292 399.636 146.131 400.069 147.065C400.502 147.999 400.746 149.01 400.787 150.038L401.226 161.251Z" fill="#5A189A"/>
<path d="M404.424 104.386C407.217 104.386 409.482 102.12 409.482 99.3244C409.482 96.5289 407.217 94.2627 404.424 94.2627C401.63 94.2627 399.366 96.5289 399.366 99.3244C399.366 102.12 401.63 104.386 404.424 104.386Z" fill="#2F2E41"/>
<path d="M399.212 98.085C399.295 96.8008 399.864 95.5965 400.803 94.7176C401.743 93.8386 402.982 93.351 404.268 93.3541C404.163 93.3408 404.06 93.3247 403.953 93.3179C402.615 93.2326 401.298 93.6825 400.291 94.5689C399.284 95.4552 398.67 96.7054 398.584 98.0446C398.498 99.3837 398.947 100.702 399.832 101.71C400.717 102.718 401.966 103.334 403.304 103.42C403.411 103.427 403.515 103.425 403.621 103.425C402.345 103.263 401.179 102.621 400.359 101.629C399.54 100.637 399.13 99.3693 399.212 98.085Z" fill="#2F2E41"/>
<path d="M399.183 100.246C394.672 96.5015 381.734 101.261 380.899 103.779C374.799 104.611 370.18 108.172 370.18 114.505C373.807 115.992 377.931 115.809 382.39 114.505C389.498 120.302 389.985 127.588 385.663 135.958L390.981 136.064L397.572 126.423L397.888 136.203L410.077 135.958V121.944C410.117 117.284 409.045 112.682 406.951 108.52C405.052 104.827 402.104 102.671 399.183 100.246Z" fill="#E0AAFF"/>
<path d="M387.832 125.006C389.168 125.006 390.251 123.489 390.251 121.618C390.251 119.746 389.168 118.229 387.832 118.229C386.496 118.229 385.413 119.746 385.413 121.618C385.413 123.489 386.496 125.006 387.832 125.006Z" fill="#B25353"/>
<path d="M83.4908 125.918C83.4908 125.918 84.9468 100.698 92.5057 106.429C100.065 112.159 89.2047 128.257 89.2047 128.257L83.4908 125.918Z" fill="#FFB9B9"/>
<path d="M55.3685 200.727C55.3685 200.727 72.1593 219.59 62.7651 220.887C53.3709 222.183 49.6755 203.116 49.6755 203.116L55.3685 200.727Z" fill="#FFB9B9"/>
<path d="M33.4578 111.436C35.5652 111.991 37.4618 113.157 38.9093 114.787C40.3569 116.417 41.2909 118.438 41.5941 120.598L46.9351 158.64L54.4225 188.986C54.4225 188.986 58.1662 192.358 56.6687 194.231C55.1713 196.104 58.5406 203.972 58.5406 203.972L49.1813 206.969C49.1813 206.969 48.0582 199.101 46.1864 198.727C44.5413 198.397 26.1263 149.169 21.6875 137.243C21.0754 135.599 20.7291 134.663 20.7291 134.663C20.7291 134.663 21.4779 109.563 33.4578 111.436Z" fill="#575A89"/>
<path d="M35.1674 309.823L40.9161 320.018C45.3679 329.529 41.4119 331.257 30.4965 326.542L28.0084 314.504L35.1674 309.823Z" fill="#FFB9B9"/>
<path d="M38.0679 323.372C38.0679 323.372 40.7969 318.926 41.7839 319.67C42.771 320.415 46.8422 323.64 46.8422 323.64L52.1451 328.722C52.1451 328.722 70.0614 330.618 58.677 336.9C47.2926 343.182 41.0012 337.973 41.0012 337.973C41.0012 337.973 25.0562 338.803 25.3134 334.351C25.5706 329.899 30.713 322.856 30.713 322.856C30.713 322.856 37.1941 327.204 38.0679 323.372Z" fill="#2F2E41"/>
<path d="M9.65735 194.587L15.0468 259.845C15.0468 259.845 15.2264 298.857 20.9752 306.407C26.7239 313.958 26.9035 317.733 26.9035 317.733L38.7603 311.621C38.7603 311.621 32.6523 301.436 33.9098 299.877C34.685 298.888 35.2366 297.743 35.5266 296.52L32.293 256.25L38.401 186.137L9.65735 194.587Z" fill="#2F2E41"/>
<path d="M24.3883 309.823L19.3582 323.126L7.95056 318.354L13.9689 308.385L24.3883 309.823Z" fill="#FFB9B9"/>
<path d="M15.9967 318.646C15.9967 318.646 20.2752 315.97 20.81 317.04C21.3448 318.111 23.484 322.66 23.484 322.66L25.8906 329.35C25.8906 329.35 40.5978 338.715 28.0299 339.251C15.4619 339.786 12.2531 332.561 12.2531 332.561C12.2531 332.561 -1.91932 326.406 0.219917 322.66C2.35916 318.913 9.84644 315.028 9.84644 315.028C9.84644 315.028 13.5901 321.589 15.9967 318.646Z" fill="#2F2E41"/>
<path d="M55.2879 194.767L58.1622 254.812C58.1622 254.812 31.9337 309.104 29.0593 310.542C28.2028 310.985 27.4436 311.595 26.8265 312.336C26.2094 313.077 25.7469 313.934 25.4663 314.857L9.65735 310.902L16.8433 299.396L32.6523 260.924C32.6523 260.924 35.1673 259.845 35.8859 256.25C36.6045 252.654 38.0417 252.654 34.4488 251.935C30.8558 251.216 30.8558 247.621 30.8558 247.621L18.999 192.969L55.2879 194.767Z" fill="#2F2E41"/>
<path d="M56.5395 88.4854C57.8109 80.6449 52.4902 73.2576 44.6553 71.9852C36.8205 70.7129 29.4384 76.0374 28.167 83.8778C26.8956 91.7183 32.2163 99.1056 40.0511 100.378C47.8859 101.65 55.268 96.3258 56.5395 88.4854Z" fill="#FFB9B9"/>
<path d="M29.5983 87.0806C29.5983 87.0806 28.5204 105.418 27.0832 107.215C25.646 109.013 42.1736 108.654 42.1736 108.654C42.1736 108.654 41.0957 93.193 42.1736 91.7547C43.2515 90.3165 29.5983 87.0806 29.5983 87.0806Z" fill="#FFB9B9"/>
<path d="M56.3645 198.722C56.3645 198.722 15.764 195.127 8.2207 198.722C8.2207 198.722 10.9976 188.413 10.2801 187.336C9.75825 186.548 11.1979 157.183 10.746 140.244C10.4897 130.686 8.28593 121.352 14.6924 114.255C16.8729 111.845 19.305 109.821 21.8722 108.833C21.8722 108.833 21.1547 102.002 24.747 101.643C24.747 101.643 38.4032 100.202 43.4305 104.52C45.0379 105.891 46.049 110.068 46.1561 113.668C43.6681 125.912 44.5487 139.498 46.8317 153.593C46.9715 154.488 47.1253 155.388 47.279 156.288C49.7018 170.266 53.3639 184.678 56.3645 198.722Z" fill="#575A89"/>
<path d="M34.8452 90.4194C36.0606 90.3468 37.2474 90.7579 38.4544 90.9183C42.7727 91.492 47.265 88.3562 48.2185 84.1026C48.2949 83.5361 48.4636 82.9861 48.7179 82.4743C49.3825 81.3884 50.8961 81.1814 52.1438 81.4311C53.3916 81.6808 54.5743 82.2651 55.845 82.3319C57.807 82.4349 59.6906 81.2261 60.7362 79.5616C61.7243 77.8444 62.1445 75.8585 61.9367 73.8879L60.9962 74.8758C60.614 74.0667 60.4664 73.1664 60.5703 72.2775C60.0718 72.1447 59.5477 72.1421 59.048 72.2701C58.5483 72.398 58.0898 72.6522 57.7164 73.0083C56.887 73.0966 57.513 71.4689 56.8968 70.9063C56.5972 70.7221 56.24 70.6552 55.894 70.7186C54.1297 70.7356 52.7024 69.3852 51.3121 68.298C48.9031 66.4186 46.0861 65.1327 43.0887 64.5443C41.0964 64.1555 38.9778 64.093 37.0884 64.8354C35.5632 65.5205 34.1866 66.4977 33.0363 67.7118C30.0783 70.5582 27.4589 73.9026 26.2283 77.8203C25.2278 81.0292 25.1995 84.4627 26.1468 87.6877C26.6427 89.3625 28.1371 95.0983 30.3249 95.2319C33.074 95.3997 31.4235 90.6237 34.8452 90.4194Z" fill="#240046"/>
<path d="M40.7939 113.201L45.9429 113.753C45.9429 113.753 50.9973 123.566 50.6303 125.613C50.2632 127.66 49.4639 126.417 51.7388 129.692C54.0137 132.967 60.469 141.431 61.2684 142.674C62.0678 143.917 83.8604 127.278 82.5055 122.292C82.5055 122.292 89.3883 127.233 92.337 127.891C92.337 127.891 69.878 157.367 66.7482 161.139C63.6185 164.911 61.0996 164.136 56.7985 161.9C52.4974 159.663 30.7383 137.354 30.7383 137.354L40.7939 113.201Z" fill="#575A89"/>
<path opacity="0.1" d="M47.279 156.288L29.3829 138.379L33.9117 136.901L46.8317 153.593C46.9715 154.488 47.1253 155.388 47.279 156.288Z" fill="black"/>
</g>
<defs>
<clipPath id="clip0_139_75">
<rect width="450" height="340" fill="white"/>
</clipPath>
</defs>
</svg>
