<svg width="467" height="383" viewBox="0 0 467 383" fill="none" xmlns="http://www.w3.org/2000/svg">
<g clip-path="url(#clip0_153_306)">
<path d="M347.481 300.181H202.684C200.372 300.178 198.156 299.258 196.521 297.622C194.887 295.986 193.967 293.768 193.965 291.455V187.273C193.967 184.959 194.887 182.741 196.521 181.106C198.156 179.47 200.372 178.549 202.684 178.547H347.481C349.793 178.55 352.009 179.47 353.644 181.106C355.278 182.741 356.198 184.959 356.201 187.273V291.455C356.198 293.768 355.278 295.986 353.644 297.622C352.009 299.258 349.793 300.178 347.481 300.181Z" fill="#E6E6E6"/>
<path d="M205.361 293.225H344.804C345.926 293.225 347.001 292.779 347.794 291.986C348.587 291.192 349.032 290.116 349.032 288.994V189.734C349.032 188.612 348.587 187.535 347.794 186.742C347.001 185.949 345.926 185.503 344.804 185.503H205.361C204.239 185.503 203.164 185.949 202.371 186.742C201.578 187.535 201.133 188.612 201.133 189.734V288.994C201.133 290.116 201.578 291.192 202.371 291.986C203.164 292.779 204.239 293.225 205.361 293.225Z" fill="white"/>
<path d="M153.516 160.316H8.71951C6.40775 160.313 4.19143 159.393 2.55677 157.757C0.92211 156.121 0.00261136 153.903 0 151.59V47.408C0.00260996 45.0946 0.922109 42.8766 2.55677 41.2408C4.19143 39.6049 6.40775 38.6847 8.71951 38.6821H153.516C155.828 38.6847 158.044 39.6049 159.679 41.2408C161.314 42.8766 162.233 45.0946 162.236 47.408V151.59C162.233 153.903 161.314 156.121 159.679 157.757C158.044 159.393 155.828 160.313 153.516 160.316Z" fill="#E6E6E6"/>
<path d="M11.396 153.36H150.84C151.961 153.36 153.036 152.914 153.829 152.12C154.622 151.327 155.067 150.251 155.067 149.129V49.8684C155.067 48.7464 154.622 47.6703 153.829 46.8769C153.036 46.0834 151.961 45.6377 150.84 45.6377H11.396C10.2748 45.6377 9.19943 46.0834 8.40659 46.8769C7.61376 47.6703 7.16835 48.7464 7.16835 49.8684V149.129C7.16835 150.251 7.61376 151.327 8.40659 152.12C9.19943 152.914 10.2748 153.36 11.396 153.36Z" fill="white"/>
<path d="M328.183 216.346H239.111C238.694 216.346 238.28 216.428 237.894 216.588C237.508 216.748 237.157 216.983 236.862 217.278C236.567 217.574 236.332 217.925 236.172 218.311C236.013 218.697 235.93 219.111 235.93 219.529C235.93 219.947 236.013 220.361 236.172 220.747C236.332 221.134 236.567 221.485 236.862 221.78C237.157 222.076 237.508 222.31 237.894 222.47C238.28 222.63 238.694 222.713 239.111 222.713H328.183C329.027 222.713 329.836 222.377 330.432 221.78C331.029 221.183 331.364 220.373 331.364 219.529C331.364 218.685 331.029 217.875 330.432 217.278C329.836 216.681 329.027 216.346 328.183 216.346Z" fill="#E6E6E6"/>
<path d="M239.111 235.936C238.694 235.936 238.28 236.018 237.894 236.178C237.508 236.338 237.157 236.572 236.862 236.868C236.567 237.164 236.332 237.515 236.172 237.901C236.013 238.287 235.93 238.701 235.93 239.119C235.93 239.537 236.013 239.951 236.172 240.337C236.332 240.723 236.567 241.074 236.862 241.37C237.157 241.666 237.508 241.9 237.894 242.06C238.28 242.22 238.694 242.302 239.111 242.302H328.183C329.027 242.302 329.836 241.967 330.432 241.37C331.029 240.773 331.364 239.963 331.364 239.119C331.364 238.275 331.029 237.465 330.432 236.868C329.836 236.271 329.027 235.936 328.183 235.936H239.111Z" fill="#E6E6E6"/>
<path d="M239.111 255.526C238.268 255.526 237.459 255.862 236.862 256.459C236.265 257.056 235.93 257.866 235.93 258.71C235.93 259.554 236.265 260.364 236.862 260.961C237.459 261.558 238.268 261.893 239.111 261.893H328.183C329.027 261.893 329.836 261.558 330.432 260.961C331.029 260.364 331.364 259.554 331.364 258.71C331.364 257.866 331.029 257.056 330.432 256.459C329.836 255.862 329.027 255.526 328.183 255.526H239.111Z" fill="#E6E6E6"/>
<path d="M222.227 223.692C224.389 223.692 226.142 221.937 226.142 219.774C226.142 217.61 224.389 215.855 222.227 215.855C220.065 215.855 218.312 217.61 218.312 219.774C218.312 221.937 220.065 223.692 222.227 223.692Z" fill="#5A189A"/>
<path d="M222.227 243.282C224.389 243.282 226.142 241.528 226.142 239.364C226.142 237.2 224.389 235.446 222.227 235.446C220.065 235.446 218.312 237.2 218.312 239.364C218.312 241.528 220.065 243.282 222.227 243.282Z" fill="#E6E6E6"/>
<path d="M222.227 262.872C224.389 262.872 226.142 261.118 226.142 258.954C226.142 256.79 224.389 255.036 222.227 255.036C220.065 255.036 218.312 256.79 218.312 258.954C218.312 261.118 220.065 262.872 222.227 262.872Z" fill="#E6E6E6"/>
<path d="M292.701 219.528C292.701 219.946 292.619 220.36 292.459 220.746C292.299 221.133 292.065 221.484 291.769 221.779C291.474 222.075 291.123 222.309 290.737 222.469C290.351 222.629 289.938 222.712 289.52 222.712H239.226C238.44 222.723 237.677 222.45 237.076 221.943C236.476 221.436 236.078 220.728 235.958 219.951C235.899 219.502 235.936 219.044 236.067 218.61C236.198 218.176 236.42 217.775 236.719 217.434C237.017 217.092 237.385 216.819 237.798 216.631C238.21 216.443 238.658 216.346 239.111 216.345H289.52C290.364 216.345 291.173 216.68 291.769 217.277C292.366 217.874 292.701 218.684 292.701 219.528Z" fill="#5A189A"/>
<path d="M275.083 165.165C282.11 165.165 287.807 159.464 287.807 152.431C287.807 145.398 282.11 139.697 275.083 139.697C268.055 139.697 262.358 145.398 262.358 152.431C262.358 159.464 268.055 165.165 275.083 165.165Z" fill="#E6E6E6"/>
<path d="M281.363 153.451C281.926 149.98 279.57 146.71 276.102 146.147C272.633 145.584 269.365 147.941 268.803 151.412C268.24 154.883 270.595 158.153 274.063 158.716C277.532 159.279 280.8 156.922 281.363 153.451Z" fill="white"/>
<path d="M21.7041 96.4736C20.868 96.4736 20.0661 96.806 19.4749 97.3977C18.8836 97.9893 18.5515 98.7918 18.5515 99.6285C18.5515 100.465 18.8836 101.268 19.4749 101.859C20.0661 102.451 20.868 102.783 21.7041 102.783H140.532C141.368 102.783 142.17 102.451 142.761 101.859C143.352 101.268 143.684 100.465 143.684 99.6285C143.684 98.7918 143.352 97.9893 142.761 97.3977C142.17 96.806 141.368 96.4736 140.532 96.4736H21.7041Z" fill="#E6E6E6"/>
<path d="M21.7041 115.889C20.868 115.889 20.0661 116.221 19.4749 116.813C18.8836 117.404 18.5515 118.207 18.5515 119.044C18.5515 119.88 18.8836 120.683 19.4749 121.274C20.0661 121.866 20.868 122.198 21.7041 122.198H140.532C141.368 122.198 142.17 121.866 142.761 121.274C143.352 120.683 143.684 119.88 143.684 119.044C143.684 118.207 143.352 117.404 142.761 116.813C142.17 116.221 141.368 115.889 140.532 115.889H21.7041Z" fill="#E6E6E6"/>
<path d="M74.8127 136.273C73.9766 136.273 73.1748 136.606 72.5835 137.197C71.9923 137.789 71.6602 138.592 71.6602 139.428C71.6602 140.265 71.9923 141.067 72.5835 141.659C73.1748 142.251 73.9766 142.583 74.8127 142.583H87.423C88.2591 142.583 89.061 142.251 89.6522 141.659C90.2434 141.067 90.5756 140.265 90.5756 139.428C90.5756 138.592 90.2434 137.789 89.6522 137.197C89.061 136.606 88.2591 136.273 87.423 136.273H74.8127Z" fill="#5A189A"/>
<path d="M64.2202 56.4141C63.963 56.4143 63.7164 56.5167 63.5345 56.6987C63.3527 56.8807 63.2504 57.1274 63.2502 57.3848V82.0268C63.2504 82.2841 63.3527 82.5309 63.5345 82.7129C63.7164 82.8949 63.963 82.9972 64.2202 82.9975H98.0156C98.2727 82.9972 98.5193 82.8949 98.7012 82.7129C98.883 82.5309 98.9853 82.2841 98.9856 82.0268V57.3848C98.9853 57.1274 98.883 56.8807 98.7012 56.6987C98.5193 56.5167 98.2727 56.4143 98.0156 56.4141L64.2202 56.4141Z" fill="#5A189A"/>
<path d="M81.1179 72.3191C84.0644 72.3191 86.453 69.9288 86.453 66.9801C86.453 64.0315 84.0644 61.6411 81.1179 61.6411C78.1714 61.6411 75.7827 64.0315 75.7827 66.9801C75.7827 69.9288 78.1714 72.3191 81.1179 72.3191Z" fill="white"/>
<path d="M89.8481 80.5704C89.85 81.4142 89.6504 82.2463 89.2661 82.9973H72.9697C72.5544 82.1833 72.3549 81.2763 72.3903 80.363C72.4257 79.4497 72.6947 78.5609 73.1718 77.7815C73.6488 77.0022 74.3177 76.3584 75.1146 75.9119C75.9115 75.4654 76.8095 75.2311 77.7228 75.2314H84.5129C85.9271 75.2306 87.2837 75.7921 88.2842 76.7922C89.2847 77.7923 89.8473 79.1492 89.8481 80.5644V80.5704Z" fill="white"/>
<path d="M81.1179 72.3191C84.0644 72.3191 86.453 69.9288 86.453 66.9801C86.453 64.0315 84.0644 61.6411 81.1179 61.6411C78.1714 61.6411 75.7827 64.0315 75.7827 66.9801C75.7827 69.9288 78.1714 72.3191 81.1179 72.3191Z" fill="white"/>
<path d="M89.8481 80.5704C89.85 81.4142 89.6504 82.2463 89.2661 82.9973H72.9697C72.5544 82.1833 72.3549 81.2763 72.3903 80.363C72.4257 79.4497 72.6947 78.5609 73.1718 77.7815C73.6488 77.0022 74.3177 76.3584 75.1146 75.9119C75.9115 75.4654 76.8095 75.2311 77.7228 75.2314H84.5129C85.9271 75.2306 87.2837 75.7921 88.2842 76.7922C89.2847 77.7923 89.8473 79.1492 89.8481 80.5644V80.5704Z" fill="white"/>
<path d="M81.1179 25.239C88.0823 25.239 93.7282 19.589 93.7282 12.6195C93.7282 5.64993 88.0823 0 81.1179 0C74.1534 0 68.5076 5.64993 68.5076 12.6195C68.5076 19.589 74.1534 25.239 81.1179 25.239Z" fill="#E6E6E6"/>
<path d="M81.1179 18.929C84.6001 18.929 87.423 16.1041 87.423 12.6193C87.423 9.13454 84.6001 6.30957 81.1179 6.30957C77.6356 6.30957 74.8127 9.13454 74.8127 12.6193C74.8127 16.1041 77.6356 18.929 81.1179 18.929Z" fill="#5A189A"/>
<path d="M395.347 376.133L389.306 376.132L386.433 352.812L395.349 352.814L395.347 376.133Z" fill="#FFF0B5"/>
<path d="M384.991 374.405H396.642V381.747H377.655C377.655 380.783 377.844 379.828 378.213 378.937C378.582 378.046 379.122 377.237 379.803 376.555C380.484 375.874 381.293 375.333 382.183 374.964C383.073 374.595 384.027 374.405 384.991 374.405Z" fill="#2F2E41"/>
<path d="M427.912 376.133L421.87 376.132L418.997 352.812L427.914 352.814L427.912 376.133Z" fill="#FFF0B5"/>
<path d="M417.555 374.405H429.206V381.747H410.219C410.219 380.783 410.408 379.828 410.777 378.937C411.146 378.046 411.686 377.237 412.367 376.555C413.049 375.874 413.857 375.333 414.747 374.964C415.637 374.595 416.591 374.405 417.555 374.405Z" fill="#2F2E41"/>
<path d="M410.218 210.355C417.387 210.355 423.198 204.539 423.198 197.366C423.198 190.192 417.387 184.377 410.218 184.377C403.05 184.377 397.239 190.192 397.239 197.366C397.239 204.539 403.05 210.355 410.218 210.355Z" fill="#FFF0B5"/>
<path d="M365.837 282.075C365.928 281.355 366.175 280.665 366.561 280.051C366.948 279.438 367.463 278.917 368.073 278.525C368.682 278.132 369.37 277.879 370.088 277.781C370.805 277.684 371.536 277.745 372.228 277.961L379.481 269.259L385.841 272.38L375.424 284.525C374.986 285.664 374.144 286.602 373.06 287.161C371.976 287.721 370.725 287.863 369.543 287.561C368.362 287.259 367.332 286.534 366.649 285.523C365.966 284.511 365.677 283.285 365.837 282.075Z" fill="#FFF0B5"/>
<path d="M428.266 290.876C427.957 290.22 427.795 289.504 427.792 288.779C427.789 288.055 427.945 287.338 428.249 286.68C428.553 286.022 428.997 285.438 429.551 284.97C430.104 284.503 430.754 284.162 431.453 283.973L432.909 272.735L439.949 271.955L437.67 287.796C437.91 288.993 437.703 290.236 437.088 291.29C436.474 292.345 435.494 293.136 434.335 293.516C433.175 293.896 431.917 293.837 430.799 293.35C429.68 292.863 428.779 291.983 428.266 290.876Z" fill="#FFF0B5"/>
<path d="M421.065 221.899C421.756 221.012 422.667 220.323 423.709 219.902C424.75 219.48 425.884 219.341 426.996 219.498C428.109 219.656 429.16 220.104 430.044 220.797C430.928 221.491 431.613 222.406 432.031 223.449L442.669 250.018C443.757 252.733 444.103 255.689 443.674 258.582L440.209 281.935C440.164 282.236 440.055 282.524 439.889 282.779C439.722 283.035 439.503 283.251 439.245 283.413C438.988 283.576 438.699 283.681 438.397 283.721C438.095 283.761 437.788 283.736 437.497 283.646L432.932 282.243C432.459 282.098 432.052 281.791 431.782 281.377C431.512 280.962 431.395 280.466 431.453 279.975C433.064 266.226 430.935 252.298 425.289 239.66L420.274 228.434C419.801 227.375 419.625 226.208 419.764 225.057C419.904 223.906 420.353 222.814 421.065 221.899Z" fill="#5A189A"/>
<path d="M413.379 210.354C415.332 210.396 417.272 210.024 419.072 209.263C420.872 208.501 422.49 207.367 423.82 205.935C425.15 204.503 426.163 202.805 426.791 200.953C427.419 199.102 427.648 197.138 427.464 195.192C427.28 193.245 426.686 191.36 425.722 189.659C424.757 187.958 423.444 186.481 421.869 185.325C420.293 184.168 418.491 183.358 416.581 182.948C414.67 182.539 412.695 182.538 410.784 182.947C407.93 181.212 404.611 180.045 401.285 180.342C397.959 180.639 394.67 182.615 393.426 185.716C392.182 188.817 393.518 192.905 396.611 194.166C398.594 194.974 400.832 194.582 402.948 194.256C405.064 193.93 407.372 193.717 409.214 194.81C411.055 195.903 411.883 198.832 410.234 200.198C409.36 200.951 408.735 201.952 408.444 203.069C408.153 204.186 408.209 205.365 408.604 206.449C409.433 208.594 411.695 210.318 413.379 210.354Z" fill="#2F2E41"/>
<path d="M429.482 281.561L431.785 368.999C431.792 369.291 431.74 369.581 431.63 369.851C431.52 370.121 431.356 370.365 431.148 370.569C430.939 370.773 430.691 370.931 430.418 371.034C430.146 371.137 429.855 371.182 429.564 371.168L421.979 370.78C421.495 370.756 421.034 370.565 420.674 370.241C420.314 369.917 420.075 369.479 419.999 369L410.978 312.208C410.939 311.965 410.817 311.743 410.633 311.58C410.448 311.418 410.213 311.325 409.967 311.317C409.721 311.309 409.481 311.388 409.286 311.539C409.092 311.689 408.956 311.903 408.903 312.143L396.691 366.824C396.626 367.116 396.5 367.391 396.32 367.631C396.141 367.87 395.913 368.069 395.651 368.214C395.389 368.359 395.099 368.446 394.801 368.471C394.502 368.495 394.202 368.456 393.92 368.356L386.393 367.895C385.958 367.741 385.585 367.447 385.332 367.06C385.079 366.673 384.96 366.213 384.993 365.752L391.564 280.733L429.482 281.561Z" fill="#2F2E41"/>
<path d="M433.177 240.031C434.447 226.78 424.712 214.795 411.444 213.853C405.727 213.446 396.852 213.301 393.926 220.8C385.113 243.388 400.541 242.84 395.226 262.41C389.91 281.981 385.215 283.103 392.509 284.516C399.802 285.929 432.601 294.272 431.254 280.497C430.426 272.03 431.91 253.248 433.177 240.031Z" fill="#5A189A"/>
<path d="M395.487 218.502C396.534 218.096 397.67 217.974 398.78 218.148C399.89 218.322 400.934 218.786 401.808 219.493C402.681 220.2 403.353 221.125 403.755 222.174C404.157 223.224 404.275 224.361 404.097 225.471L399.955 251.38C399.246 255.81 397.374 259.973 394.53 263.441L381.076 279.848C380.883 280.083 380.641 280.274 380.368 280.408C380.094 280.541 379.795 280.614 379.49 280.621C379.186 280.628 378.884 280.569 378.604 280.448C378.325 280.327 378.075 280.148 377.871 279.921L374.675 276.37C374.344 276.002 374.153 275.53 374.134 275.035C374.115 274.541 374.27 274.055 374.572 273.663L375.513 272.441C383.34 262.276 388.278 250.184 389.805 237.442L391.452 223.701C391.59 222.549 392.038 221.457 392.749 220.542C393.46 219.626 394.406 218.921 395.487 218.502Z" fill="#5A189A"/>
<path d="M466.472 383H330.13C329.99 383 329.856 382.944 329.756 382.845C329.657 382.746 329.602 382.611 329.602 382.471C329.602 382.331 329.657 382.196 329.756 382.097C329.856 381.998 329.99 381.942 330.13 381.942H466.472C466.612 381.942 466.746 381.998 466.845 382.097C466.944 382.196 467 382.331 467 382.471C467 382.611 466.944 382.746 466.845 382.845C466.746 382.944 466.612 383 466.472 383Z" fill="#CCCCCC"/>
</g>
<defs>
<clipPath id="clip0_153_306">
<rect width="467" height="383" fill="white"/>
</clipPath>
</defs>
</svg>
