<svg width="32" height="32" viewBox="0 0 32 32" fill="none" xmlns="http://www.w3.org/2000/svg">
<path d="M10.4 2.66699H21.6C25.8667 2.66699 29.3333 6.13366 29.3333 10.4003V21.6003C29.3333 23.6513 28.5186 25.6183 27.0683 27.0686C25.618 28.5189 23.651 29.3337 21.6 29.3337H10.4C6.13334 29.3337 2.66667 25.867 2.66667 21.6003V10.4003C2.66667 8.34932 3.48143 6.38231 4.93171 4.93203C6.38199 3.48175 8.349 2.66699 10.4 2.66699ZM10.1333 5.33366C8.8603 5.33366 7.6394 5.83937 6.73923 6.73955C5.83905 7.63972 5.33334 8.86062 5.33334 10.1337V21.867C5.33334 24.5203 7.48 26.667 10.1333 26.667H21.8667C23.1397 26.667 24.3606 26.1613 25.2608 25.2611C26.161 24.3609 26.6667 23.14 26.6667 21.867V10.1337C26.6667 7.48033 24.52 5.33366 21.8667 5.33366H10.1333ZM23 7.33366C23.442 7.33366 23.866 7.50925 24.1785 7.82181C24.4911 8.13437 24.6667 8.5583 24.6667 9.00033C24.6667 9.44235 24.4911 9.86628 24.1785 10.1788C23.866 10.4914 23.442 10.667 23 10.667C22.558 10.667 22.1341 10.4914 21.8215 10.1788C21.5089 9.86628 21.3333 9.44235 21.3333 9.00033C21.3333 8.5583 21.5089 8.13437 21.8215 7.82181C22.1341 7.50925 22.558 7.33366 23 7.33366ZM16 9.33366C17.7681 9.33366 19.4638 10.036 20.714 11.2863C21.9643 12.5365 22.6667 14.2322 22.6667 16.0003C22.6667 17.7684 21.9643 19.4641 20.714 20.7144C19.4638 21.9646 17.7681 22.667 16 22.667C14.2319 22.667 12.5362 21.9646 11.286 20.7144C10.0357 19.4641 9.33334 17.7684 9.33334 16.0003C9.33334 14.2322 10.0357 12.5365 11.286 11.2863C12.5362 10.036 14.2319 9.33366 16 9.33366ZM16 12.0003C14.9391 12.0003 13.9217 12.4218 13.1716 13.1719C12.4214 13.922 12 14.9395 12 16.0003C12 17.0612 12.4214 18.0786 13.1716 18.8288C13.9217 19.5789 14.9391 20.0003 16 20.0003C17.0609 20.0003 18.0783 19.5789 18.8284 18.8288C19.5786 18.0786 20 17.0612 20 16.0003C20 14.9395 19.5786 13.922 18.8284 13.1719C18.0783 12.4218 17.0609 12.0003 16 12.0003Z" fill="white"/>
</svg>
