<svg width="197" height="61" viewBox="0 0 197 61" fill="none" xmlns="http://www.w3.org/2000/svg">
<path d="M71.2004 21.2734C73.8182 21.2734 75.9017 22.1267 77.451 23.8334C79.027 25.5134 79.815 27.8334 79.815 30.7934V43.8334H73.0035V31.7134C73.0035 30.2201 72.6162 29.0601 71.8415 28.2334C71.0669 27.4067 70.0251 26.9934 68.7162 26.9934C67.4074 26.9934 66.3656 27.4067 65.591 28.2334C64.8163 29.0601 64.429 30.2201 64.429 31.7134V43.8334H57.5774V21.5134H64.429V24.4734C65.1235 23.4867 66.0584 22.7134 67.2337 22.1534C68.4091 21.5667 69.7313 21.2734 71.2004 21.2734ZM94.7533 44.1534C92.5629 44.1534 90.5863 43.6867 88.8233 42.7534C87.087 41.8201 85.7113 40.4867 84.6963 38.7534C83.7079 37.0201 83.2138 34.9934 83.2138 32.6734C83.2138 30.3801 83.7213 28.3667 84.7363 26.6334C85.7514 24.8734 87.1404 23.5267 88.9034 22.5934C90.6664 21.6601 92.6431 21.1934 94.8334 21.1934C97.0238 21.1934 99.0005 21.6601 100.763 22.5934C102.526 23.5267 103.915 24.8734 104.931 26.6334C105.946 28.3667 106.453 30.3801 106.453 32.6734C106.453 34.9667 105.932 36.9934 104.89 38.7534C103.875 40.4867 102.473 41.8201 100.683 42.7534C98.9204 43.6867 96.9437 44.1534 94.7533 44.1534ZM94.7533 38.2334C96.0622 38.2334 97.1707 37.7534 98.0789 36.7934C99.0138 35.8334 99.4813 34.4601 99.4813 32.6734C99.4813 30.8867 99.0272 29.5134 98.119 28.5534C97.2375 27.5934 96.1423 27.1134 94.8334 27.1134C93.4978 27.1134 92.3893 27.5934 91.5078 28.5534C90.6263 29.4867 90.1856 30.8601 90.1856 32.6734C90.1856 34.4601 90.613 35.8334 91.4677 36.7934C92.3492 37.7534 93.4444 38.2334 94.7533 38.2334ZM108.726 32.6334C108.726 30.3401 109.153 28.3267 110.008 26.5934C110.889 24.8601 112.078 23.5267 113.574 22.5934C115.07 21.6601 116.739 21.1934 118.582 21.1934C120.052 21.1934 121.387 21.5001 122.589 22.1134C123.818 22.7267 124.78 23.5534 125.474 24.5934V14.2334H132.326V43.8334H125.474V40.6334C124.833 41.7001 123.911 42.5534 122.709 43.1934C121.534 43.8334 120.158 44.1534 118.582 44.1534C116.739 44.1534 115.07 43.6867 113.574 42.7534C112.078 41.7934 110.889 40.4467 110.008 38.7134C109.153 36.9534 108.726 34.9267 108.726 32.6334ZM125.474 32.6734C125.474 30.9667 124.993 29.6201 124.032 28.6334C123.097 27.6467 121.948 27.1534 120.586 27.1534C119.224 27.1534 118.062 27.6467 117.1 28.6334C116.165 29.5934 115.698 30.9267 115.698 32.6334C115.698 34.3401 116.165 35.7001 117.1 36.7134C118.062 37.7001 119.224 38.1934 120.586 38.1934C121.948 38.1934 123.097 37.7001 124.032 36.7134C124.993 35.7267 125.474 34.3801 125.474 32.6734ZM140.488 44.1534C139.286 44.1534 138.298 43.8067 137.523 43.1134C136.775 42.3934 136.401 41.5134 136.401 40.4734C136.401 39.4067 136.775 38.5134 137.523 37.7934C138.298 37.0734 139.286 36.7134 140.488 36.7134C141.663 36.7134 142.625 37.0734 143.373 37.7934C144.148 38.5134 144.535 39.4067 144.535 40.4734C144.535 41.5134 144.148 42.3934 143.373 43.1134C142.625 43.8067 141.663 44.1534 140.488 44.1534ZM170.669 21.5134V43.8334H163.816V40.7934C163.122 41.7801 162.174 42.5801 160.972 43.1934C159.796 43.7801 158.487 44.0734 157.045 44.0734C155.335 44.0734 153.826 43.7001 152.517 42.9534C151.208 42.1801 150.193 41.0734 149.472 39.6334C148.751 38.1934 148.39 36.5001 148.39 34.5534V21.5134H155.202V33.6334C155.202 35.1267 155.589 36.2867 156.364 37.1134C157.139 37.9401 158.18 38.3534 159.489 38.3534C160.825 38.3534 161.88 37.9401 162.655 37.1134C163.429 36.2867 163.816 35.1267 163.816 33.6334V21.5134H170.669ZM184.684 44.1534C182.734 44.1534 180.998 43.8201 179.475 43.1534C177.953 42.4867 176.751 41.5801 175.869 40.4334C174.988 39.2601 174.494 37.9534 174.387 36.5134H181.158C181.238 37.2867 181.599 37.9134 182.24 38.3934C182.881 38.8734 183.669 39.1134 184.604 39.1134C185.459 39.1134 186.113 38.9534 186.567 38.6334C187.048 38.2867 187.289 37.8467 187.289 37.3134C187.289 36.6734 186.955 36.2067 186.287 35.9134C185.619 35.5934 184.537 35.2467 183.041 34.8734C181.439 34.5001 180.103 34.1134 179.035 33.7134C177.966 33.2867 177.045 32.6334 176.27 31.7534C175.495 30.8467 175.108 29.6334 175.108 28.1134C175.108 26.8334 175.455 25.6734 176.15 24.6334C176.871 23.5667 177.913 22.7267 179.275 22.1134C180.664 21.5001 182.307 21.1934 184.203 21.1934C187.008 21.1934 189.212 21.8867 190.815 23.2734C192.444 24.6601 193.379 26.5001 193.619 28.7934H187.289C187.182 28.0201 186.834 27.4067 186.247 26.9534C185.686 26.5001 184.938 26.2734 184.003 26.2734C183.202 26.2734 182.587 26.4334 182.16 26.7534C181.732 27.0467 181.519 27.4601 181.519 27.9934C181.519 28.6334 181.853 29.1134 182.52 29.4334C183.215 29.7534 184.283 30.0734 185.726 30.3934C187.382 30.8201 188.731 31.2467 189.773 31.6734C190.815 32.0734 191.723 32.7401 192.497 33.6734C193.299 34.5801 193.713 35.8067 193.739 37.3534C193.739 38.6601 193.365 39.8334 192.618 40.8734C191.896 41.8867 190.841 42.6867 189.452 43.2734C188.09 43.8601 186.501 44.1534 184.684 44.1534Z" fill="white"/>
<path d="M7.16786 49.6402C11.1265 51.956 16.2162 50.6295 18.5359 46.6776C20.8555 42.7256 19.5269 37.6446 15.5682 35.3288C11.6095 33.013 6.51991 34.3395 4.20022 38.2914C1.88052 42.2434 3.20918 47.3244 7.16786 49.6402Z" fill="white"/>
<path d="M20.1278 27.3375C24.0865 29.6532 29.1761 28.3268 31.4958 24.3748C33.8155 20.4229 32.4868 15.3418 28.5282 13.0261C24.5695 10.7103 19.4799 12.0367 17.1602 15.9887C14.8405 19.9407 16.1691 25.0217 20.1278 27.3375Z" fill="white"/>
<path d="M41.3398 49.7631C45.3665 47.5674 46.8478 42.5286 44.6483 38.5087C42.4488 34.4888 37.4014 33.0101 33.3747 35.2058C29.348 37.4016 27.8668 42.4404 30.0663 46.4603C32.2658 50.4802 37.3131 51.9589 41.3398 49.7631Z" fill="white"/>
</svg>
