<svg width="162" height="49" viewBox="0 0 162 49" fill="none" xmlns="http://www.w3.org/2000/svg">
<path d="M58.5506 16.9647C60.7033 16.9647 62.4167 17.6616 63.6907 19.0553C64.9867 20.4273 65.6347 22.322 65.6347 24.7393V35.3887H60.0334V25.4907C60.0334 24.2711 59.7149 23.3238 59.0778 22.6487C58.4408 21.9736 57.5841 21.636 56.5078 21.636C55.4315 21.636 54.5748 21.9736 53.9378 22.6487C53.3007 23.3238 52.9822 24.2711 52.9822 25.4907V35.3887H47.3479V17.1607H52.9822V19.578C53.5534 18.7722 54.3222 18.1407 55.2887 17.6833C56.2552 17.2042 57.3425 16.9647 58.5506 16.9647ZM77.919 35.65C76.1178 35.65 74.4923 35.2689 73.0425 34.5067C71.6147 33.7444 70.4835 32.6556 69.6487 31.24C68.836 29.8244 68.4296 28.1693 68.4296 26.2747C68.4296 24.4018 68.847 22.7576 69.6817 21.342C70.5164 19.9047 71.6586 18.8049 73.1084 18.0427C74.5582 17.2804 76.1837 16.8993 77.9849 16.8993C79.7861 16.8993 81.4116 17.2804 82.8614 18.0427C84.3111 18.8049 85.4534 19.9047 86.2881 21.342C87.1228 22.7576 87.5401 24.4018 87.5401 26.2747C87.5401 28.1476 87.1118 29.8027 86.2551 31.24C85.4204 32.6556 84.2672 33.7444 82.7955 34.5067C81.3457 35.2689 79.7202 35.65 77.919 35.65ZM77.919 30.8153C78.9953 30.8153 79.9069 30.4233 80.6538 29.6393C81.4226 28.8553 81.807 27.7338 81.807 26.2747C81.807 24.8156 81.4336 23.694 80.6867 22.91C79.9618 22.126 79.0612 21.734 77.9849 21.734C76.8866 21.734 75.975 22.126 75.2501 22.91C74.5252 23.6722 74.1628 24.7938 74.1628 26.2747C74.1628 27.7338 74.5142 28.8553 75.2171 29.6393C75.942 30.4233 76.8426 30.8153 77.919 30.8153ZM89.409 26.242C89.409 24.3691 89.7605 22.7249 90.4634 21.3093C91.1883 19.8938 92.1658 18.8049 93.3959 18.0427C94.626 17.2804 95.9989 16.8993 97.5145 16.8993C98.7227 16.8993 99.821 17.1498 100.809 17.6507C101.82 18.1516 102.611 18.8267 103.182 19.676V11.2153H108.816V35.3887H103.182V32.7753C102.655 33.6464 101.897 34.3433 100.908 34.866C99.9418 35.3887 98.8105 35.65 97.5145 35.65C95.9989 35.65 94.626 35.2689 93.3959 34.5067C92.1658 33.7227 91.1883 32.6229 90.4634 31.2073C89.7605 29.77 89.409 28.1149 89.409 26.242ZM103.182 26.2747C103.182 24.8809 102.786 23.7811 101.996 22.9753C101.227 22.1696 100.282 21.7667 99.162 21.7667C98.0417 21.7667 97.0862 22.1696 96.2954 22.9753C95.5266 23.7593 95.1422 24.8482 95.1422 26.242C95.1422 27.6358 95.5266 28.7464 96.2954 29.574C97.0862 30.3798 98.0417 30.7827 99.162 30.7827C100.282 30.7827 101.227 30.3798 101.996 29.574C102.786 28.7682 103.182 27.6684 103.182 26.2747ZM115.528 35.65C114.54 35.65 113.727 35.3669 113.09 34.8007C112.475 34.2127 112.167 33.494 112.167 32.6447C112.167 31.7736 112.475 31.044 113.09 30.456C113.727 29.868 114.54 29.574 115.528 29.574C116.495 29.574 117.286 29.868 117.901 30.456C118.538 31.044 118.856 31.7736 118.856 32.6447C118.856 33.494 118.538 34.2127 117.901 34.8007C117.286 35.3669 116.495 35.65 115.528 35.65ZM140.347 17.1607V35.3887H134.712V32.906C134.141 33.7118 133.361 34.3651 132.373 34.866C131.406 35.3451 130.33 35.5847 129.144 35.5847C127.738 35.5847 126.497 35.2798 125.42 34.67C124.344 34.0384 123.509 33.1347 122.916 31.9587C122.323 30.7827 122.027 29.3998 122.027 27.81V17.1607H127.628V27.0587C127.628 28.2782 127.947 29.2256 128.584 29.9007C129.221 30.5758 130.077 30.9133 131.154 30.9133C132.252 30.9133 133.12 30.5758 133.757 29.9007C134.394 29.2256 134.712 28.2782 134.712 27.0587V17.1607H140.347ZM151.872 35.65C150.269 35.65 148.841 35.3778 147.589 34.8333C146.337 34.2889 145.348 33.5484 144.623 32.612C143.899 31.6538 143.492 30.5867 143.404 29.4107H148.973C149.039 30.0422 149.335 30.554 149.862 30.946C150.39 31.338 151.038 31.534 151.806 31.534C152.509 31.534 153.047 31.4033 153.421 31.142C153.816 30.8589 154.014 30.4996 154.014 30.064C154.014 29.5413 153.739 29.1602 153.19 28.9207C152.641 28.6593 151.751 28.3762 150.521 28.0713C149.203 27.7664 148.105 27.4507 147.226 27.124C146.348 26.7756 145.59 26.242 144.953 25.5233C144.316 24.7829 143.997 23.792 143.997 22.5507C143.997 21.5053 144.283 20.558 144.854 19.7087C145.447 18.8376 146.304 18.1516 147.424 17.6507C148.566 17.1498 149.917 16.8993 151.477 16.8993C153.783 16.8993 155.596 17.4656 156.913 18.598C158.253 19.7304 159.022 21.2331 159.22 23.106H154.014C153.926 22.4744 153.641 21.9736 153.157 21.6033C152.696 21.2331 152.081 21.048 151.312 21.048C150.653 21.048 150.148 21.1787 149.796 21.44C149.445 21.6796 149.269 22.0171 149.269 22.4527C149.269 22.9753 149.544 23.3673 150.093 23.6287C150.664 23.89 151.543 24.1513 152.729 24.4127C154.091 24.7611 155.2 25.1096 156.057 25.458C156.913 25.7847 157.66 26.3291 158.297 27.0913C158.956 27.8318 159.297 28.8336 159.319 30.0967C159.319 31.1638 159.011 32.122 158.396 32.9713C157.803 33.7989 156.935 34.4522 155.793 34.9313C154.673 35.4104 153.366 35.65 151.872 35.65Z" fill="url(#paint0_linear_139_57)"/>
<path d="M5.89436 40.131C9.14972 42.0222 13.3351 40.939 15.2427 37.7115C17.1502 34.4841 16.0576 30.3346 12.8023 28.4434C9.5469 26.5522 5.36153 27.6354 3.45396 30.8629C1.5464 34.0903 2.639 38.2398 5.89436 40.131Z" fill="url(#paint1_linear_139_57)"/>
<path d="M16.5518 21.9176C19.8072 23.8088 23.9926 22.7256 25.9001 19.4982C27.8077 16.2707 26.7151 12.1212 23.4597 10.23C20.2044 8.33879 16.019 9.42203 14.1114 12.6495C12.2039 15.8769 13.2965 20.0264 16.5518 21.9176Z" fill="url(#paint2_linear_139_57)"/>
<path d="M33.9951 40.2314C37.3064 38.4382 38.5245 34.3232 36.7158 31.0403C34.9071 27.7574 30.7565 26.5497 27.4452 28.3429C24.1339 30.1362 22.9158 34.2512 24.7245 37.5341C26.5332 40.817 30.6838 42.0246 33.9951 40.2314Z" fill="url(#paint3_linear_139_57)"/>
<defs>
<linearGradient id="paint0_linear_139_57" x1="47.3479" y1="23.4327" x2="159.319" y2="23.4327" gradientUnits="userSpaceOnUse">
<stop stop-color="#9D4EDD"/>
<stop offset="1" stop-color="#3C096C"/>
</linearGradient>
<linearGradient id="paint1_linear_139_57" x1="3.45396" y1="30.8629" x2="15.1906" y2="37.7997" gradientUnits="userSpaceOnUse">
<stop stop-color="#9D4EDD"/>
<stop offset="1" stop-color="#3C096C"/>
</linearGradient>
<linearGradient id="paint2_linear_139_57" x1="14.1114" y1="12.6495" x2="25.848" y2="19.5863" gradientUnits="userSpaceOnUse">
<stop stop-color="#9D4EDD"/>
<stop offset="1" stop-color="#3C096C"/>
</linearGradient>
<linearGradient id="paint3_linear_139_57" x1="24.7245" y1="37.5341" x2="36.6681" y2="30.9537" gradientUnits="userSpaceOnUse">
<stop stop-color="#9D4EDD"/>
<stop offset="1" stop-color="#3C096C"/>
</linearGradient>
</defs>
</svg>
