<svg width="1179" height="240" viewBox="0 0 1179 240" fill="none" xmlns="http://www.w3.org/2000/svg">
<path d="M109.64 56.52C130.547 56.52 147.187 63.3467 159.56 77C172.147 90.44 178.44 109 178.44 132.68V237H124.04V140.04C124.04 128.093 120.947 118.813 114.76 112.2C108.573 105.587 100.253 102.28 89.8 102.28C79.3467 102.28 71.0267 105.587 64.84 112.2C58.6533 118.813 55.56 128.093 55.56 140.04V237H0.840001V58.44H55.56V82.12C61.1067 74.2267 68.5733 68.04 77.96 63.56C87.3467 58.8667 97.9067 56.52 109.64 56.52ZM265.745 239.56C248.252 239.56 232.465 235.827 218.385 228.36C204.518 220.893 193.532 210.227 185.425 196.36C177.532 182.493 173.585 166.28 173.585 147.72C173.585 129.373 177.638 113.267 185.745 99.4C193.852 85.32 204.945 74.5467 219.025 67.08C233.105 59.6133 248.892 55.88 266.385 55.88C283.878 55.88 299.665 59.6133 313.745 67.08C327.825 74.5467 338.918 85.32 347.025 99.4C355.132 113.267 359.185 129.373 359.185 147.72C359.185 166.067 355.025 182.28 346.705 196.36C338.598 210.227 327.398 220.893 313.105 228.36C299.025 235.827 283.238 239.56 265.745 239.56ZM265.745 192.2C276.198 192.2 285.052 188.36 292.305 180.68C299.772 173 303.505 162.013 303.505 147.72C303.505 133.427 299.878 122.44 292.625 114.76C285.585 107.08 276.838 103.24 266.385 103.24C255.718 103.24 246.865 107.08 239.825 114.76C232.785 122.227 229.265 133.213 229.265 147.72C229.265 162.013 232.678 173 239.505 180.68C246.545 188.36 255.292 192.2 265.745 192.2ZM345.335 147.4C345.335 129.053 348.748 112.947 355.575 99.08C362.615 85.2133 372.108 74.5467 384.055 67.08C396.002 59.6133 409.335 55.88 424.055 55.88C435.788 55.88 446.455 58.3333 456.055 63.24C465.868 68.1467 473.548 74.76 479.095 83.08V0.199997H533.815V237H479.095V211.4C473.975 219.933 466.615 226.76 457.015 231.88C447.628 237 436.642 239.56 424.055 239.56C409.335 239.56 396.002 235.827 384.055 228.36C372.108 220.68 362.615 209.907 355.575 196.04C348.748 181.96 345.335 165.747 345.335 147.4ZM479.095 147.72C479.095 134.067 475.255 123.293 467.575 115.4C460.108 107.507 450.935 103.56 440.055 103.56C429.175 103.56 419.895 107.507 412.215 115.4C404.748 123.08 401.015 133.747 401.015 147.4C401.015 161.053 404.748 171.933 412.215 180.04C419.895 187.933 429.175 191.88 440.055 191.88C450.935 191.88 460.108 187.933 467.575 180.04C475.255 172.147 479.095 161.373 479.095 147.72ZM710.253 239.56C700.653 239.56 692.759 236.787 686.573 231.24C680.599 225.48 677.613 218.44 677.613 210.12C677.613 201.587 680.599 194.44 686.573 188.68C692.759 182.92 700.653 180.04 710.253 180.04C719.639 180.04 727.319 182.92 733.293 188.68C739.479 194.44 742.573 201.587 742.573 210.12C742.573 218.44 739.479 225.48 733.293 231.24C727.319 236.787 719.639 239.56 710.253 239.56ZM1026.72 58.44V237H972.003V212.68C966.456 220.573 958.883 226.973 949.283 231.88C939.896 236.573 929.443 238.92 917.923 238.92C904.269 238.92 892.216 235.933 881.763 229.96C871.309 223.773 863.203 214.92 857.443 203.4C851.683 191.88 848.803 178.333 848.803 162.76V58.44H903.203V155.4C903.203 167.347 906.296 176.627 912.483 183.24C918.669 189.853 926.989 193.16 937.443 193.16C948.109 193.16 956.536 189.853 962.723 183.24C968.909 176.627 972.003 167.347 972.003 155.4V58.44H1026.72ZM1106.67 239.56C1091.09 239.56 1077.23 236.893 1065.07 231.56C1052.91 226.227 1043.31 218.973 1036.27 209.8C1029.23 200.413 1025.28 189.96 1024.43 178.44H1078.51C1079.15 184.627 1082.03 189.64 1087.15 193.48C1092.27 197.32 1098.56 199.24 1106.03 199.24C1112.85 199.24 1118.08 197.96 1121.71 195.4C1125.55 192.627 1127.47 189.107 1127.47 184.84C1127.47 179.72 1124.8 175.987 1119.47 173.64C1114.13 171.08 1105.49 168.307 1093.55 165.32C1080.75 162.333 1070.08 159.24 1061.55 156.04C1053.01 152.627 1045.65 147.4 1039.47 140.36C1033.28 133.107 1030.19 123.4 1030.19 111.24C1030.19 101 1032.96 91.72 1038.51 83.4C1044.27 74.8667 1052.59 68.1467 1063.47 63.24C1074.56 58.3333 1087.68 55.88 1102.83 55.88C1125.23 55.88 1142.83 61.4267 1155.63 72.52C1168.64 83.6133 1176.11 98.3333 1178.03 116.68H1127.47C1126.61 110.493 1123.84 105.587 1119.15 101.96C1114.67 98.3333 1108.69 96.52 1101.23 96.52C1094.83 96.52 1089.92 97.8 1086.51 100.36C1083.09 102.707 1081.39 106.013 1081.39 110.28C1081.39 115.4 1084.05 119.24 1089.39 121.8C1094.93 124.36 1103.47 126.92 1114.99 129.48C1128.21 132.893 1138.99 136.307 1147.31 139.72C1155.63 142.92 1162.88 148.253 1169.07 155.72C1175.47 162.973 1178.77 172.787 1178.99 185.16C1178.99 195.613 1176 205 1170.03 213.32C1164.27 221.427 1155.84 227.827 1144.75 232.52C1133.87 237.213 1121.17 239.56 1106.67 239.56Z" fill="#E0AAFF" fill-opacity="0.2"/>
</svg>
